<svg width="53" height="53" viewBox="0 0 53 53" fill="none" xmlns="http://www.w3.org/2000/svg">
<rect x="0.5" y="0.630859" width="52" height="52" rx="26" fill="#EEEEEE"/>
<path d="M31.5 32.6309C32.06 32.6309 32.5 33.0709 32.5 33.6309C32.5 34.1909 32.06 34.6309 31.5 34.6309C30.94 34.6309 30.5 34.1909 30.5 33.6309C30.5 33.0709 30.94 32.6309 31.5 32.6309ZM31.5 29.6309C28.77 29.6309 26.44 31.2909 25.5 33.6309C26.44 35.9709 28.77 37.6309 31.5 37.6309C34.23 37.6309 36.56 35.9709 37.5 33.6309C36.56 31.2909 34.23 29.6309 31.5 29.6309ZM31.5 36.1309C30.837 36.1309 30.2011 35.8675 29.7322 35.3986C29.2634 34.9298 29 34.2939 29 33.6309C29 32.9678 29.2634 32.3319 29.7322 31.8631C30.2011 31.3943 30.837 31.1309 31.5 31.1309C32.163 31.1309 32.7989 31.3943 33.2678 31.8631C33.7366 32.3319 34 32.9678 34 33.6309C34 34.2939 33.7366 34.9298 33.2678 35.3986C32.7989 35.8675 32.163 36.1309 31.5 36.1309ZM23.77 34.6309H20.5V18.6309H27.5V23.6309H32.5V27.7009C33.2 27.7809 33.86 27.9509 34.5 28.1909V22.6309L28.5 16.6309H20.5C19.9696 16.6309 19.4609 16.8416 19.0858 17.2166C18.7107 17.5917 18.5 18.1004 18.5 18.6309V34.6309C18.5 35.1613 18.7107 35.67 19.0858 36.0451C19.4609 36.4201 19.9696 36.6309 20.5 36.6309H25C24.4962 36.0266 24.0819 35.3531 23.77 34.6309Z" fill="#616161"/>
</svg>
