<svg width="53" height="53" viewBox="0 0 53 53" fill="none" xmlns="http://www.w3.org/2000/svg">
<rect x="0.5" y="0.630859" width="52" height="52" rx="26" fill="#EEEEEE"/>
<path d="M34.5 22.6309H18.5V20.6309H34.5M34.5 32.6309H18.5V26.6309H34.5M34.5 18.6309H18.5C17.39 18.6309 16.5 19.5209 16.5 20.6309V32.6309C16.5 33.1613 16.7107 33.67 17.0858 34.0451C17.4609 34.4201 17.9696 34.6309 18.5 34.6309H34.5C35.0304 34.6309 35.5391 34.4201 35.9142 34.0451C36.2893 33.67 36.5 33.1613 36.5 32.6309V20.6309C36.5 20.1004 36.2893 19.5917 35.9142 19.2166C35.5391 18.8416 35.0304 18.6309 34.5 18.6309Z" fill="#616161"/>
</svg>
