<svg width="64" height="64" viewBox="0 0 64 64" fill="none" xmlns="http://www.w3.org/2000/svg">
<g opacity="0.1">
<circle cx="32" cy="32" r="32" fill="#616161"/>
</g>
<g clip-path="url(#clip0_736_7818)">
<path d="M42.6032 18.6641C44.2799 18.6641 45.5573 20.0213 45.5573 21.6182V37.9056C45.5573 39.5822 44.2 40.8597 42.6032 40.8597H36.695V42.3766H38.212C39.0104 42.3766 39.729 43.0154 39.729 43.8936C39.729 44.692 39.0902 45.4106 38.212 45.4106H26.3158C25.5174 45.4106 24.7988 44.7719 24.7988 43.8936C24.7988 43.0952 25.4375 42.3766 26.3158 42.3766H27.8327V40.8597H21.8447C20.1681 40.8597 18.8906 39.5024 18.8906 37.9056V21.6182C18.8906 20.0213 20.2479 18.6641 21.8447 18.6641H42.6032ZM34.699 40.8597H29.5094V43.0154H34.699V40.8597ZM41.9645 20.8996H22.5633C21.685 20.8996 20.9665 21.6182 20.9665 22.4964V37.0273C20.9665 37.9056 21.685 38.6242 22.5633 38.6242H41.9645C42.8427 38.6242 43.5613 37.9056 43.5613 37.0273V22.4964C43.5613 21.6182 42.8427 20.8996 41.9645 20.8996Z" fill="#616161"/>
<path d="M33.8193 31.289H35.4504V32.92H33.8193V31.289ZM28.1785 23.2695H36.198C36.3339 23.2695 36.4019 23.3375 36.5378 23.4055L38.5086 25.8521C38.5766 25.988 38.5766 25.988 38.5766 26.1239V27.3472C38.5766 28.0268 38.2368 28.7064 37.7611 29.1142V35.7064C37.7611 35.9103 37.5572 36.1142 37.3533 36.1142H32.1203V30.8812C32.1203 30.6773 31.9164 30.4734 31.7125 30.4734H28.5183C28.3145 30.4734 28.1106 30.6773 28.1106 30.8812V36.1142H26.9552C26.7514 36.1142 26.5475 35.9103 26.5475 35.7064V29.1142C26.0717 28.7064 25.7319 28.0268 25.7319 27.3472V26.1239C25.7319 26.0559 25.7319 25.92 25.7999 25.8521L27.7708 23.4734C27.9747 23.3375 28.0426 23.2695 28.1785 23.2695ZM26.6154 26.4637V27.2792C26.6154 28.1627 27.363 28.9103 28.2465 28.9103C29.13 28.9103 29.8776 28.1627 29.8776 27.2792V26.4637H26.6154ZM30.6251 26.4637V27.2792C30.6251 28.1627 31.3727 28.9103 32.2562 28.9103C33.1397 28.9103 33.8873 28.1627 33.8873 27.2792V26.4637H30.6251ZM34.5669 26.4637V27.2792C34.5669 28.1627 35.3145 28.9103 36.198 28.9103C37.0815 28.9103 37.829 28.1627 37.829 27.2792V26.4637H34.5669ZM28.3824 24.0851L27.0232 25.7161H29.8776L30.4213 24.0851H28.3824ZM33.6154 25.7161L33.0717 24.0851H31.2368L30.7611 25.7161H33.6154ZM34.4989 25.7161H37.3533L35.9941 24.0851H33.9552L34.4989 25.7161ZM33.0038 30.8812V33.2598C33.0038 33.4637 33.2077 33.6676 33.4116 33.6676H35.7902C35.9941 33.6676 36.198 33.4637 36.198 33.2598V30.8812C36.198 30.6773 35.9941 30.4734 35.7902 30.4734H33.4116C33.1397 30.4734 33.0038 30.6773 33.0038 30.8812ZM31.3727 36.1142V31.289H28.9941V36.1142H31.3727Z" fill="#616161"/>
</g>
<defs>
<clipPath id="clip0_736_7818">
<rect width="26.6667" height="26.6667" fill="white" transform="translate(18.8906 18.6641)"/>
</clipPath>
</defs>
</svg>
