<svg width="20" height="21" viewBox="0 0 20 21" fill="none" xmlns="http://www.w3.org/2000/svg">
<path d="M10 0.457031C4.48602 0.457031 0 4.94305 0 10.457C0 15.971 4.48602 20.457 10 20.457C15.514 20.457 20 15.971 20 10.457C20 4.94305 15.514 0.457031 10 0.457031ZM12.4869 10.8091H10.86C10.86 13.4084 10.86 16.6086 10.86 16.6086H8.44921C8.44921 16.6086 8.44921 13.4394 8.44921 10.8091H7.30323V8.75962H8.44921V7.43399C8.44921 6.48458 8.90035 5.00106 10.8821 5.00106L12.6678 5.00791V6.99735C12.6678 6.99735 11.5822 6.99735 11.3711 6.99735C11.1601 6.99735 10.8604 7.10289 10.8604 7.55564V8.76002H12.6972L12.4869 10.8091Z" fill="white" fill-opacity="0.75"/>
</svg>
