<svg width="65" height="64" viewBox="0 0 65 64" fill="none" xmlns="http://www.w3.org/2000/svg">
<g opacity="0.1">
<circle cx="32.334" cy="32" r="32" fill="#616161"/>
</g>
<path d="M42.5694 42.668C42.5694 42.8448 42.4992 43.0143 42.3741 43.1394C42.249 43.2644 42.0793 43.3346 41.9024 43.3346H25.8931C25.7162 43.3346 25.5465 43.2644 25.4214 43.1394C25.2963 43.0143 25.226 42.8448 25.226 42.668V38.668H23.2249V42.668C23.2249 43.3752 23.506 44.0535 24.0064 44.5536C24.5067 45.0537 25.1854 45.3346 25.8931 45.3346H41.9024C42.61 45.3346 43.2887 45.0537 43.7891 44.5536C44.2895 44.0535 44.5706 43.3752 44.5706 42.668V29.1053C44.5704 28.3981 44.2892 27.7199 43.7888 27.22L36.0123 19.4493L35.9469 19.396L35.8989 19.356C35.8073 19.2692 35.7097 19.189 35.6067 19.116C35.5721 19.0948 35.5364 19.0752 35.5 19.0573L35.436 19.0253L35.3693 18.9866C35.2972 18.9453 35.2238 18.9026 35.1478 18.8706C34.882 18.7651 34.6009 18.703 34.3153 18.6866C34.2886 18.6849 34.2624 18.6817 34.2366 18.6773L34.1272 18.668H25.8931C25.1854 18.668 24.5067 18.9489 24.0064 19.449C23.506 19.9491 23.2249 20.6274 23.2249 21.3346V33.3346H25.226V21.3346C25.226 21.1578 25.2963 20.9883 25.4214 20.8632C25.5465 20.7382 25.7162 20.668 25.8931 20.668H33.8977V26.668C33.8977 27.3752 34.1788 28.0535 34.6792 28.5536C35.1796 29.0537 35.8583 29.3346 36.5659 29.3346H42.5694V42.668ZM35.8989 22.1626L41.0726 27.3346H36.5659C36.389 27.3346 36.2194 27.2644 36.0943 27.1394C35.9692 27.0143 35.8989 26.8448 35.8989 26.668V22.1626ZM29.5619 31.3346C29.2965 31.3346 29.042 31.44 28.8544 31.6275C28.6667 31.8151 28.5613 32.0694 28.5613 32.3346C28.5613 32.5999 28.6667 32.8542 28.8544 33.0417C29.042 33.2293 29.2965 33.3346 29.5619 33.3346H38.2336C38.499 33.3346 38.7535 33.2293 38.9411 33.0417C39.1287 32.8542 39.2342 32.5999 39.2342 32.3346C39.2342 32.0694 39.1287 31.8151 38.9411 31.6275C38.7535 31.44 38.499 31.3346 38.2336 31.3346H29.5619ZM21.5572 35.0013C21.2919 35.0013 21.0373 35.1067 20.8497 35.2942C20.6621 35.4817 20.5566 35.7361 20.5566 36.0013C20.5566 36.2665 20.6621 36.5209 20.8497 36.7084C21.0373 36.8959 21.2919 37.0013 21.5572 37.0013H30.2289C30.4943 37.0013 30.7488 36.8959 30.9364 36.7084C31.1241 36.5209 31.2295 36.2665 31.2295 36.0013C31.2295 35.7361 31.1241 35.4817 30.9364 35.2942C30.7488 35.1067 30.4943 35.0013 30.2289 35.0013H21.5572ZM29.5619 38.668C29.2965 38.668 29.042 38.7733 28.8544 38.9609C28.6667 39.1484 28.5613 39.4028 28.5613 39.668C28.5613 39.9332 28.6667 40.1875 28.8544 40.3751C29.042 40.5626 29.2965 40.668 29.5619 40.668H38.2336C38.499 40.668 38.7535 40.5626 38.9411 40.3751C39.1287 40.1875 39.2342 39.9332 39.2342 39.668C39.2342 39.4028 39.1287 39.1484 38.9411 38.9609C38.7535 38.7733 38.499 38.668 38.2336 38.668H29.5619Z" fill="#616161"/>
</svg>
