<svg width="20" height="21" viewBox="0 0 20 21" fill="none" xmlns="http://www.w3.org/2000/svg">
<path d="M9.91848 12.3272C10.9063 12.3272 11.7071 11.5264 11.7071 10.5386C11.7071 9.55078 10.9063 8.75 9.91848 8.75C8.93066 8.75 8.12988 9.55078 8.12988 10.5386C8.12988 11.5264 8.93066 12.3272 9.91848 12.3272Z" fill="white" fill-opacity="0.3"/>
<path d="M12.1542 6.14844H7.68276C7.03237 6.14844 6.46327 6.35169 6.09742 6.71754C5.73157 7.08338 5.52832 7.65248 5.52832 8.30288V12.7744C5.52832 13.4248 5.73157 13.9939 6.13807 14.4004C6.54457 14.7662 7.07302 14.9695 7.72341 14.9695H12.1542C12.8046 14.9695 13.3737 14.7662 13.7396 14.4004C14.1461 14.0345 14.3493 13.4654 14.3493 12.815V8.34353C14.3493 7.69313 14.1461 7.16468 13.7802 6.75819C13.3737 6.35169 12.8453 6.14844 12.1542 6.14844ZM9.9185 13.3028C8.37381 13.3028 7.15431 12.0427 7.15431 10.5386C7.15431 8.99393 8.41446 7.77443 9.9185 7.77443C11.4225 7.77443 12.7233 8.99393 12.7233 10.5386C12.7233 12.0833 11.4632 13.3028 9.9185 13.3028ZM12.8046 8.30288C12.4388 8.30288 12.1542 8.01833 12.1542 7.65248C12.1542 7.28663 12.4388 7.00208 12.8046 7.00208C13.1705 7.00208 13.455 7.28663 13.455 7.65248C13.455 8.01833 13.1705 8.30288 12.8046 8.30288Z" fill="white" fill-opacity="0.3"/>
<path d="M9.99986 0.457031C4.47148 0.457031 0 4.92851 0 10.4569C0 15.9853 4.47148 20.4568 9.99986 20.4568C15.5282 20.4568 19.9997 15.9853 19.9997 10.4569C20.0404 4.92851 15.5282 0.457031 9.99986 0.457031ZM15.325 12.8146C15.325 13.7495 14.9998 14.5625 14.4307 15.1316C13.8616 15.7007 13.0486 15.9853 12.1543 15.9853H7.72347C6.82917 15.9853 6.01618 15.7007 5.44708 15.1316C4.83733 14.5625 4.55278 13.7495 4.55278 12.8146V8.3431C4.55278 6.47321 5.81293 5.17241 7.72347 5.17241H12.195C13.1299 5.17241 13.9022 5.49761 14.4713 6.06671C15.0404 6.63581 15.325 7.40816 15.325 8.3431V12.8146Z" fill="white" fill-opacity="0.3"/>
</svg>
