<svg width="20" height="21" viewBox="0 0 20 21" fill="none" xmlns="http://www.w3.org/2000/svg">
<path d="M10 0.457031C4.4775 0.457031 0 4.93391 0 10.457C0 15.9795 4.4775 20.457 10 20.457C15.5225 20.457 20 15.9795 20 10.457C20 4.93391 15.5225 0.457031 10 0.457031ZM7.4025 14.3802H5.3625V8.24266H7.4025V14.3802ZM6.3825 7.40453H6.36938C5.68437 7.40453 5.24188 6.93266 5.24188 6.34391C5.24188 5.74203 5.69812 5.28391 6.39563 5.28391C7.09312 5.28391 7.52312 5.74203 7.53625 6.34391C7.53625 6.93328 7.09312 7.40453 6.3825 7.40453ZM14.7581 14.3802H12.7181V11.0964C12.7181 10.2714 12.4231 9.70891 11.6844 9.70891C11.1213 9.70891 10.7856 10.0883 10.6381 10.4552C10.5844 10.5864 10.5706 10.7695 10.5706 10.9527V14.3802H8.53125C8.53125 14.3802 8.55812 8.81891 8.53125 8.24266H10.5712V9.11203C10.8419 8.69391 11.3269 8.09828 12.41 8.09828C13.7519 8.09828 14.7581 8.97578 14.7581 10.8608V14.3802Z" fill="white" fill-opacity="0.3"/>
</svg>
