<svg width="65" height="64" viewBox="0 0 65 64" fill="none" xmlns="http://www.w3.org/2000/svg">
<g opacity="0.1">
<circle cx="32.6665" cy="32" r="32" fill="#616161"/>
</g>
<path d="M23.6694 21.475C23.6694 20.7305 23.9648 20.0165 24.4906 19.4901C25.0164 18.9637 25.7296 18.668 26.4732 18.668H35.9796C36.7228 18.6684 37.4355 18.9642 37.9609 19.4904L43.4095 24.9435C43.935 25.47 44.2301 26.1838 44.23 26.9281V42.0598C44.23 42.8042 43.9347 43.5182 43.4089 44.0446C42.8831 44.5711 42.1699 44.8668 41.4263 44.8668H34.3843C34.7021 44.3166 34.8843 43.6776 34.8843 42.9955H41.4263C41.6742 42.9955 41.9119 42.8969 42.0872 42.7214C42.2624 42.5459 42.3609 42.3079 42.3609 42.0598V28.0247H37.688C36.9444 28.0247 36.2313 27.729 35.7055 27.2025C35.1797 26.6761 34.8843 25.9621 34.8843 25.2177V20.5393H26.4732C26.2253 20.5393 25.9876 20.6379 25.8123 20.8134C25.637 20.9888 25.5386 21.2268 25.5386 21.475V30.2853C24.7981 30.6089 24.1541 31.1192 23.6694 31.7664V21.475ZM37.688 26.1533H41.974L36.7535 20.9267V25.2177C36.7535 25.4658 36.8519 25.7038 37.0272 25.8793C37.2025 26.0548 37.4402 26.1533 37.688 26.1533ZM36.7535 36.4457C36.7535 36.1976 36.655 35.9596 36.4797 35.7841C36.3045 35.6087 36.0668 35.5101 35.8189 35.5101C35.571 35.5101 35.3333 35.6087 35.158 35.7841C34.9828 35.9596 34.8843 36.1976 34.8843 36.4457V40.1884C34.8843 40.4366 34.9828 40.6746 35.158 40.8501C35.3333 41.0255 35.571 41.1241 35.8189 41.1241C36.0668 41.1241 36.3045 41.0255 36.4797 40.8501C36.655 40.6746 36.7535 40.4366 36.7535 40.1884V36.4457ZM39.5572 31.7674C39.805 31.7674 40.0428 31.866 40.218 32.0414C40.3933 32.2169 40.4918 32.4549 40.4918 32.7031V40.1884C40.4918 40.4366 40.3933 40.6746 40.218 40.8501C40.0428 41.0255 39.805 41.1241 39.5572 41.1241C39.3093 41.1241 39.0716 41.0255 38.8963 40.8501C38.7211 40.6746 38.6226 40.4366 38.6226 40.1884V32.7031C38.6226 32.4549 38.7211 32.2169 38.8963 32.0414C39.0716 31.866 39.3093 31.7674 39.5572 31.7674ZM24.1367 35.0422V34.5744C24.1367 34.1443 24.2213 33.7185 24.3857 33.3212C24.5501 32.9238 24.791 32.5628 25.0948 32.2587C25.3985 31.9546 25.7591 31.7134 26.156 31.5488C26.5528 31.3843 26.9782 31.2995 27.4077 31.2995C27.8373 31.2995 28.2626 31.3843 28.6595 31.5488C29.0563 31.7134 29.4169 31.9546 29.7207 32.2587C30.0244 32.5628 30.2654 32.9238 30.4297 33.3212C30.5941 33.7185 30.6787 34.1443 30.6787 34.5744V35.0422H31.146C31.7657 35.0422 32.36 35.2887 32.7981 35.7274C33.2363 36.166 33.4825 36.761 33.4825 37.3814V42.9955C33.4825 43.6158 33.2363 44.2108 32.7981 44.6495C32.36 45.0882 31.7657 45.3346 31.146 45.3346H23.6694C23.0498 45.3346 22.4555 45.0882 22.0173 44.6495C21.5792 44.2108 21.333 43.6158 21.333 42.9955V37.3814C21.333 36.761 21.5792 36.166 22.0173 35.7274C22.4555 35.2887 23.0498 35.0422 23.6694 35.0422H24.1367ZM26.0059 34.5744V35.0422H28.8096V34.5744C28.8096 34.2022 28.6619 33.8452 28.399 33.582C28.1361 33.3188 27.7795 33.1709 27.4077 33.1709C27.0359 33.1709 26.6794 33.3188 26.4165 33.582C26.1536 33.8452 26.0059 34.2022 26.0059 34.5744ZM29.2769 40.1884C29.2769 39.6921 29.0799 39.2161 28.7294 38.8652C28.3789 38.5142 27.9035 38.3171 27.4077 38.3171C26.912 38.3171 26.4366 38.5142 26.086 38.8652C25.7355 39.2161 25.5386 39.6921 25.5386 40.1884C25.5386 40.6847 25.7355 41.1607 26.086 41.5117C26.4366 41.8626 26.912 42.0598 27.4077 42.0598C27.9035 42.0598 28.3789 41.8626 28.7294 41.5117C29.0799 41.1607 29.2769 40.6847 29.2769 40.1884Z" fill="#616161"/>
</svg>
