<svg width="126" height="29" viewBox="0 0 126 29" fill="none" xmlns="http://www.w3.org/2000/svg">
<g clip-path="url(#clip0_238_3894)">
<mask id="mask0_238_3894" style="mask-type:luminance" maskUnits="userSpaceOnUse" x="0" y="0" width="126" height="29">
<path d="M126 0.630859H0V28.5726H126V0.630859Z" fill="white"/>
</mask>
<g mask="url(#mask0_238_3894)">
<mask id="mask1_238_3894" style="mask-type:luminance" maskUnits="userSpaceOnUse" x="0" y="0" width="126" height="29">
<path d="M126 0.630859H0V28.5726H126V0.630859Z" fill="white"/>
</mask>
<g mask="url(#mask1_238_3894)">
<path d="M37.2441 14.0029V7.15154H41.3426C42.3983 7.15154 43.2677 7.47923 43.9197 8.10481C44.5408 8.76013 44.8823 9.53467 44.8823 10.5475C44.8823 11.5602 44.5408 12.3943 43.8577 13.0497C43.1746 13.7051 42.3673 14.0328 41.3426 14.0328H37.2441V14.0029ZM46.6522 10.5773C46.6522 9.08782 46.0933 7.86648 45.0065 6.91327C43.9197 5.96003 42.6157 5.4834 41.0632 5.4834H35.4121V22.3736H37.213V15.7009H41.0322C42.5846 15.7009 43.9197 15.2243 44.9755 14.2711C46.0933 13.2881 46.6522 12.0667 46.6522 10.5773Z" fill="black"/>
<path d="M54.1416 13.7049V11.441C53.7694 11.292 53.3968 11.2324 52.9928 11.2324C51.6889 11.2324 50.7574 11.9176 50.1675 13.2581L50.0743 13.7049V11.441H48.2734V22.3735H50.0743V16.9221C50.0743 16.0284 50.2916 15.2241 50.7264 14.5092C50.9437 14.1518 51.2231 13.8241 51.5647 13.556C51.9062 13.3177 52.3099 13.1687 52.7756 13.1687C53.2417 13.1687 53.707 13.3474 54.1416 13.7049Z" fill="black"/>
<path d="M64.8205 16.862C64.8205 17.9642 64.4171 18.8876 63.6101 19.6324C62.8025 20.4367 61.84 20.7941 60.6912 20.7941C59.5424 20.7941 58.5794 20.4367 57.7726 19.6324C56.934 18.8579 56.5613 17.9344 56.5613 16.862C56.5613 15.7598 56.934 14.8662 57.7726 14.0619C58.5794 13.2874 59.5424 12.9001 60.6912 12.9001C61.84 12.9001 62.8025 13.2874 63.6101 14.0619C64.4171 14.8364 64.8205 15.7598 64.8205 16.862ZM66.6522 16.862C66.6522 15.313 66.0623 13.9428 64.8827 12.8405C63.703 11.7086 62.3054 11.1426 60.6912 11.1426C59.0452 11.1426 57.6481 11.7086 56.4681 12.8405C55.2886 13.9428 54.7295 15.313 54.7295 16.862C54.7295 18.4408 55.2886 19.7813 56.4681 20.8835C57.6481 21.9857 59.0452 22.5516 60.6912 22.5516C62.3054 22.5516 63.7337 22.0154 64.8827 20.8835C66.0623 19.7813 66.6522 18.4408 66.6522 16.862Z" fill="black"/>
<path d="M70.7293 28.569V20.4962C70.8221 20.6451 70.9464 20.7644 71.0392 20.8537C72.1261 22.0154 73.4613 22.5814 75.0144 22.5814C76.5662 22.5814 77.9015 22.0154 78.9883 20.8537C80.013 19.7217 80.5721 18.411 80.5721 16.8918C80.5721 15.3726 80.013 14.0619 78.9883 12.93C77.9015 11.7979 76.5662 11.2021 75.0144 11.2021C73.43 11.2021 72.1261 11.7979 71.0392 12.93C70.9464 13.0491 70.7907 13.1682 70.7293 13.3171V11.4405H68.9277V28.569H70.7293ZM78.7705 16.9216C78.7705 17.994 78.3978 18.9174 77.5909 19.6919C76.8147 20.4962 75.8521 20.8835 74.7345 20.8835C73.5856 20.8835 72.623 20.4962 71.8468 19.6919C71.0706 18.9174 70.6979 17.9642 70.6979 16.9216C70.6979 15.879 71.0706 14.9257 71.8468 14.1512C72.623 13.3469 73.5856 12.9597 74.7345 12.9597C75.8521 12.9597 76.8147 13.3469 77.5909 14.1512C78.3677 14.9257 78.7705 15.8492 78.7705 16.9216Z" fill="black"/>
<path d="M93.9859 16.6535C93.9859 15.164 93.3647 13.8831 92.185 12.7512C91.0054 11.6788 89.6079 11.1426 88.0555 11.1426C86.4096 11.1426 85.0122 11.7086 83.8325 12.8405C82.6528 13.9428 82.0938 15.313 82.0938 16.862C82.0938 18.4408 82.6528 19.7813 83.8325 20.8835C84.391 21.4197 85.0122 21.807 85.7263 22.1048C86.4404 22.4027 87.3107 22.5516 88.3034 22.5516C89.2973 22.5516 90.2913 22.2538 91.2846 21.658C92.2779 21.0622 92.992 20.2281 93.489 19.1856H91.4088C91.0054 19.7217 90.5078 20.109 89.9185 20.4068C89.3287 20.7048 88.7075 20.8239 88.0555 20.8239C87.0616 20.8239 86.1925 20.5261 85.4163 19.9004C84.6401 19.3047 84.1431 18.5302 83.9875 17.577H94.0167V16.6535H93.9859ZM92.0608 16.0875H83.9875C84.081 15.6407 84.2674 15.2237 84.5466 14.8364C85.3849 13.5555 86.5339 12.9001 88.0555 12.9001C89.0175 12.9001 89.8564 13.198 90.6326 13.7938C91.3781 14.3896 91.8431 15.164 92.0608 16.0875Z" fill="black"/>
<path d="M97.9493 22.3729V3.75488H96.1484V22.3729H97.9493Z" fill="black"/>
<path d="M102.8 22.3729V3.75488H100.999V22.3729H102.8Z" fill="black"/>
<path d="M113.737 20.4967V22.3733H115.538V11.4409H113.737V15.9986C113.737 17.5476 113.427 18.7093 112.837 19.5732C112.278 20.4073 111.253 20.8244 109.856 20.8244C109.08 20.8244 108.52 20.586 108.179 20.0796C107.838 19.5732 107.683 18.9476 107.683 18.2327V11.4111H105.882V18.2327C105.882 19.5137 106.223 20.5562 106.937 21.3605C107.651 22.1648 108.645 22.5521 109.949 22.5521C111.626 22.6117 112.868 21.8967 113.737 20.4967Z" fill="black"/>
<path d="M119.84 20.8243C119.405 20.5265 119.064 20.0201 118.877 19.3051H116.952C117.325 21.5691 118.847 22.6713 121.486 22.6713C122.107 22.6713 122.665 22.6117 123.225 22.4627C123.752 22.3138 124.249 22.1053 124.684 21.8372C125.553 21.2712 125.988 20.4073 125.988 19.2158C125.988 18.0242 125.429 17.1901 124.218 16.6242C123.722 16.4156 123.194 16.2369 122.573 16.0879C122.013 15.9688 121.454 15.8199 120.958 15.671C120.43 15.522 120.026 15.3135 119.685 15.1049C119.343 14.8667 119.157 14.539 119.157 14.0326C119.157 13.5262 119.374 13.1687 119.778 12.9304C120.182 12.6921 120.678 12.5729 121.237 12.5729C121.796 12.5729 122.293 12.6921 122.696 12.9006C123.069 13.1091 123.38 13.4964 123.567 14.0921H125.522C125.274 12.9899 124.808 12.2155 124.063 11.7984C123.317 11.3516 122.417 11.1133 121.299 11.1133C120.213 11.1133 119.25 11.4112 118.442 11.9474C117.666 12.5133 117.263 13.3474 117.263 14.4198C117.263 14.9262 117.418 15.4028 117.698 15.8199C118.008 16.2369 118.442 16.5646 119.002 16.8029C119.529 17.0114 120.058 17.1901 120.647 17.3391C121.206 17.4583 121.765 17.6072 122.293 17.7561C123.473 18.1136 124.063 18.6796 124.063 19.3647C124.063 20.5563 123.225 21.1223 121.579 21.1223C120.896 21.2414 120.305 21.1223 119.84 20.8243Z" fill="black"/>
<path d="M25.5211 8.91148C25.5211 8.91148 18.3486 6.76674 14.25 13.3202L11.4555 13.7372C11.4555 13.7372 7.60535 7.86885 14.3431 3.48995C14.3431 3.48995 19.3421 0.898336 23.5028 4.97938C23.5339 4.97938 25.2726 6.73687 25.5211 8.91148Z" fill="#00C2CB"/>
<path d="M25.2421 7.72026C25.2421 7.72026 21.0814 4.4733 15.3683 6.94577C15.3683 6.94577 12.0459 8.37564 10.6176 11.6524C10.6176 11.6524 8.87881 6.82661 14.3746 3.49027C14.3746 3.49027 21.9198 0.00498843 25.2421 7.72026Z" fill="#5CE1E6"/>
<path d="M6.48785 3.49023C6.48785 3.49023 4.25226 10.3714 11.0832 14.3035L11.5179 16.9845C11.5179 16.9845 5.40112 20.6782 0.836791 14.2141C0.836791 14.2141 -1.86454 9.41815 2.38928 5.4265C2.38928 5.4265 4.22122 3.75834 6.48785 3.49023Z" fill="#00C2CB"/>
<path d="M5.24606 3.78809C5.24606 3.78809 1.86164 7.77977 4.43877 13.2609C4.43877 13.2609 5.92915 16.4483 9.34465 17.8185C9.34465 17.8185 4.31457 19.4867 0.836987 14.2142C0.836987 14.2142 -2.79584 6.97548 5.24606 3.78809Z" fill="#5CE1E6"/>
<path d="M0.899414 21.7506C0.899414 21.7506 8.07192 23.8953 12.1705 17.3418L14.965 16.9248C14.965 16.9248 18.8151 22.7931 12.0774 27.1721C12.0774 27.1721 7.07835 29.7637 2.91765 25.6827C2.8866 25.6827 1.14781 23.9252 0.899414 21.7506Z" fill="#00C2CB"/>
<path d="M1.17871 22.9419C1.17871 22.9419 5.33938 26.1888 11.0525 23.7164C11.0525 23.7164 14.3749 22.2865 15.8031 19.0098C15.8031 19.0098 17.5419 23.8355 12.0461 27.1719C12.0772 27.1719 4.50104 30.6571 1.17871 22.9419Z" fill="#5CE1E6"/>
<path d="M19.9315 27.1719C19.9315 27.1719 22.167 20.2907 15.336 16.3586L14.9014 13.6776C14.9014 13.6776 21.0182 9.98385 25.5825 16.448C25.5825 16.448 28.2838 21.2439 24.03 25.2356C24.03 25.2654 22.1981 26.9335 19.9315 27.1719Z" fill="#00C2CB"/>
<path d="M21.205 26.904C21.205 26.904 24.5895 22.9124 22.0123 17.4313C22.0123 17.4313 20.5219 14.2439 17.1064 12.8736C17.1064 12.8736 22.1365 11.2054 25.6141 16.478C25.583 16.4482 29.2158 23.7166 21.205 26.904Z" fill="#5CE1E6"/>
<path d="M13.1941 18.0562C14.6346 18.0562 15.8023 16.9359 15.8023 15.554C15.8023 14.172 14.6346 13.0518 13.1941 13.0518C11.7536 13.0518 10.5859 14.172 10.5859 15.554C10.5859 16.9359 11.7536 18.0562 13.1941 18.0562Z" fill="#F4F4F4"/>
<path d="M13.1948 17.2231C14.1551 17.2231 14.9336 16.4762 14.9336 15.5549C14.9336 14.6336 14.1551 13.8867 13.1948 13.8867C12.2345 13.8867 11.4561 14.6336 11.4561 15.5549C11.4561 16.4762 12.2345 17.2231 13.1948 17.2231Z" fill="#00C2CB"/>
<path d="M23.6288 1.73245C23.6288 1.73245 23.6598 1.70266 23.5976 1.67288C23.5976 1.67288 21.7347 0.749427 18.5055 0.630273C18.5055 0.630273 17.0151 0.540907 15.3074 0.868582C15.3074 0.868582 14.9969 0.89837 15.059 1.10689C15.059 1.10689 15.09 1.25583 15.3074 1.19626C15.3074 1.19626 16.5183 0.868582 18.195 0.838793C18.195 0.838793 20.2443 0.749427 22.4488 1.3452C22.4488 1.3452 23.1008 1.52393 23.5356 1.70266C23.5356 1.73245 23.5976 1.79203 23.6288 1.73245Z" fill="#00C2CB"/>
<path d="M21.981 1.85206C21.981 1.85206 22.0121 1.82226 21.95 1.79248C21.95 1.79248 19.9938 1.10734 16.7647 1.31586C16.7647 1.31586 15.2743 1.40523 13.6287 1.94142C13.6287 1.94142 13.3492 2.00099 13.4114 2.20952C13.4114 2.20952 13.4734 2.35846 13.6908 2.26909C13.6908 2.26909 14.8706 1.82226 16.5163 1.58396C16.5163 1.58396 18.5656 1.25628 20.8012 1.61374C20.8012 1.61374 21.4533 1.70311 21.95 1.85206C21.8879 1.85206 21.95 1.88184 21.981 1.85206Z" fill="#00C2CB"/>
</g>
</g>
</g>
<defs>
<clipPath id="clip0_238_3894">
<rect width="126" height="28" fill="white" transform="translate(0 0.630859)"/>
</clipPath>
</defs>
</svg>
