<svg width="182" height="43" viewBox="0 0 182 43" fill="none" xmlns="http://www.w3.org/2000/svg">
<path d="M53.7975 20.6035V10.3264H59.7177C61.2426 10.3264 62.4984 10.818 63.4402 11.7563C64.3372 12.7393 64.8306 13.9011 64.8306 15.4204C64.8306 16.9395 64.3372 18.1906 63.3505 19.1737C62.3639 20.1568 61.1977 20.6483 59.7177 20.6483H53.7975V20.6035ZM67.387 15.4651C67.387 13.2308 66.5798 11.3988 65.0099 9.96903C63.4402 8.53917 61.5565 7.82422 59.314 7.82422H51.1514V33.1595H53.7527V23.1505H59.2692C61.5117 23.1505 63.4402 22.4356 64.9651 21.0057C66.5798 19.5312 67.387 17.6991 67.387 15.4651Z" fill="white"/>
<path d="M78.2048 20.154V16.7582C77.6672 16.5347 77.1289 16.4453 76.5454 16.4453C74.6619 16.4453 73.3165 17.4731 72.4643 19.4838L72.3298 20.154V16.7582H69.7285V33.1569H72.3298V24.9798C72.3298 23.6393 72.6437 22.4329 73.2716 21.3605C73.5856 20.8243 73.9892 20.3328 74.4825 19.9307C74.9759 19.5732 75.559 19.3497 76.2317 19.3497C76.9048 19.3497 77.577 19.6178 78.2048 20.154Z" fill="white"/>
<path d="M93.6302 24.8916C93.6302 26.5449 93.0474 27.9301 91.8818 29.0472C90.7153 30.2536 89.325 30.7899 87.6656 30.7899C86.0062 30.7899 84.6152 30.2536 83.4498 29.0472C82.2385 27.8854 81.7001 26.5003 81.7001 24.8916C81.7001 23.2383 82.2385 21.898 83.4498 20.6914C84.6152 19.5297 86.0062 18.9488 87.6656 18.9488C89.325 18.9488 90.7153 19.5297 91.8818 20.6914C93.0474 21.8532 93.6302 23.2383 93.6302 24.8916ZM96.2759 24.8916C96.2759 22.5682 95.4239 20.5128 93.7199 18.8594C92.0159 17.1615 89.9971 16.3125 87.6656 16.3125C85.2881 16.3125 83.27 17.1615 81.5655 18.8594C79.8618 20.5128 79.0542 22.5682 79.0542 24.8916C79.0542 27.2599 79.8618 29.2706 81.5655 30.9239C83.27 32.5772 85.2881 33.4261 87.6656 33.4261C89.9971 33.4261 92.0603 32.6218 93.7199 30.9239C95.4239 29.2706 96.2759 27.2599 96.2759 24.8916Z" fill="white"/>
<path d="M102.165 42.4525V30.3435C102.299 30.5668 102.479 30.7457 102.613 30.8797C104.183 32.6223 106.112 33.4712 108.355 33.4712C110.596 33.4712 112.525 32.6223 114.095 30.8797C115.575 29.1817 116.383 27.2157 116.383 24.9368C116.383 22.658 115.575 20.6919 114.095 18.9941C112.525 17.296 110.596 16.4023 108.355 16.4023C106.066 16.4023 104.183 17.296 102.613 18.9941C102.479 19.1727 102.254 19.3514 102.165 19.5748V16.7598H99.563V42.4525H102.165ZM113.78 24.9815C113.78 26.5901 113.242 27.9753 112.076 29.137C110.955 30.3435 109.565 30.9243 107.951 30.9243C106.291 30.9243 104.901 30.3435 103.779 29.137C102.658 27.9753 102.12 26.5454 102.12 24.9815C102.12 23.4176 102.658 21.9877 103.779 20.826C104.901 19.6195 106.291 19.0387 107.951 19.0387C109.565 19.0387 110.955 19.6195 112.076 20.826C113.198 21.9877 113.78 23.3729 113.78 24.9815Z" fill="white"/>
<path d="M135.758 24.5789C135.758 22.3447 134.86 20.4234 133.156 18.7254C131.452 17.1168 129.434 16.3125 127.192 16.3125C124.814 16.3125 122.796 17.1615 121.092 18.8594C119.388 20.5128 118.58 22.5682 118.58 24.8916C118.58 27.2599 119.388 29.2706 121.092 30.9239C121.898 31.7281 122.796 32.3091 123.827 32.7559C124.859 33.2027 126.116 33.4261 127.55 33.4261C128.985 33.4261 130.421 32.9793 131.856 32.0856C133.291 31.192 134.322 29.9408 135.04 28.377H132.035C131.452 29.1812 130.734 29.7622 129.883 30.2089C129.031 30.6558 128.133 30.8345 127.192 30.8345C125.756 30.8345 124.501 30.3877 123.379 29.4493C122.258 28.5556 121.54 27.3939 121.316 25.9641H135.802V24.5789H135.758ZM132.977 23.7299H121.316C121.451 23.0597 121.72 22.4341 122.123 21.8532C123.334 19.9318 124.994 18.9488 127.192 18.9488C128.581 18.9488 129.793 19.3957 130.914 20.2893C131.991 21.183 132.662 22.3447 132.977 23.7299Z" fill="white"/>
<path d="M141.482 33.1574V5.23047H138.881V33.1574H141.482Z" fill="white"/>
<path d="M148.489 33.1574V5.23047H145.888V33.1574H148.489Z" fill="white"/>
<path d="M164.287 30.3432V33.1582H166.89V16.7596H164.287V23.596C164.287 25.9195 163.84 27.6621 162.988 28.958C162.18 30.2091 160.7 30.8347 158.681 30.8347C157.56 30.8347 156.753 30.4772 156.26 29.7176C155.767 28.958 155.543 28.0196 155.543 26.9472V16.7148H152.941V26.9472C152.941 28.8686 153.434 30.4325 154.466 31.6389C155.497 32.8454 156.933 33.4262 158.817 33.4262C161.238 33.5157 163.032 32.4433 164.287 30.3432Z" fill="white"/>
<path d="M173.103 30.8361C172.474 30.3894 171.981 29.6298 171.711 28.5573H168.931C169.469 31.9532 171.667 33.6065 175.479 33.6065C176.377 33.6065 177.183 33.5172 177.991 33.2937C178.753 33.0703 179.471 32.7576 180.099 32.3554C181.354 31.5064 181.982 30.2106 181.982 28.4232C181.982 26.6359 181.175 25.3848 179.426 24.5359C178.709 24.2231 177.946 23.955 177.049 23.7315C176.241 23.5529 175.434 23.3294 174.717 23.106C173.955 22.8826 173.371 22.5698 172.878 22.257C172.384 21.8996 172.115 21.4081 172.115 20.6485C172.115 19.8888 172.429 19.3526 173.012 18.9952C173.596 18.6377 174.313 18.459 175.12 18.459C175.927 18.459 176.645 18.6377 177.228 18.9505C177.766 19.2633 178.216 19.8441 178.485 20.7378H181.309C180.951 19.0845 180.278 17.9228 179.202 17.2972C178.125 16.627 176.824 16.2695 175.21 16.2695C173.64 16.2695 172.25 16.7164 171.083 17.5207C169.962 18.3696 169.38 19.6208 169.38 21.2293C169.38 21.9889 169.604 22.7038 170.007 23.3294C170.456 23.955 171.083 24.4465 171.891 24.804C172.653 25.1167 173.416 25.3848 174.267 25.6083C175.075 25.787 175.883 26.0104 176.645 26.2338C178.35 26.77 179.202 27.619 179.202 28.6467C179.202 30.434 177.991 31.283 175.613 31.283C174.627 31.4617 173.774 31.283 173.103 30.8361Z" fill="white"/>
<path d="M36.8641 12.9663C36.8641 12.9663 26.5039 9.74923 20.5837 19.5795L16.5472 20.205C16.5472 20.205 10.9859 11.4024 20.7183 4.83404C20.7183 4.83404 27.939 0.946625 33.9489 7.06819C33.9937 7.06819 36.5053 9.70443 36.8641 12.9663Z" fill="#00C2CB"/>
<path d="M36.4609 11.179C36.4609 11.179 30.4511 6.30858 22.1988 10.0173C22.1988 10.0173 17.3999 12.1621 15.3367 17.0772C15.3367 17.0772 12.8251 9.83854 20.7635 4.83404C20.7635 4.83404 31.662 -0.393885 36.4609 11.179Z" fill="#5CE1E6"/>
<path d="M9.37183 4.83203C9.37183 4.83203 6.14265 15.1538 16.0095 21.0519L16.6374 25.0734C16.6374 25.0734 7.8021 30.614 1.20919 20.9178C1.20919 20.9178 -2.69273 13.7239 3.45167 7.73643C3.45167 7.73643 6.0978 5.23418 9.37183 4.83203Z" fill="#00C2CB"/>
<path d="M7.57769 5.28125C7.57769 5.28125 2.68908 11.2688 6.41161 19.4905C6.41161 19.4905 8.56438 24.2715 13.4979 26.3269C13.4979 26.3269 6.23221 28.8292 1.20904 20.9204C1.20904 20.9204 -4.03838 10.0623 7.57769 5.28125Z" fill="#5CE1E6"/>
<path d="M1.29932 32.223C1.29932 32.223 11.6596 35.4401 17.5798 25.6099L21.6162 24.9844C21.6162 24.9844 27.1776 33.7869 17.4453 40.3553C17.4453 40.3553 10.2245 44.2427 4.21454 38.1212C4.1697 38.1212 1.65811 35.4849 1.29932 32.223Z" fill="#00C2CB"/>
<path d="M1.70264 34.0115C1.70264 34.0115 7.7125 38.8819 15.9648 35.1733C15.9648 35.1733 20.7637 33.0285 22.8268 28.1133C22.8268 28.1133 25.3384 35.3519 17.4 40.3564C17.4449 40.3564 6.50156 45.5843 1.70264 34.0115Z" fill="#5CE1E6"/>
<path d="M28.7906 40.3564C28.7906 40.3564 32.0197 30.0347 22.1527 24.1366L21.5249 20.1151C21.5249 20.1151 30.3603 14.5744 36.9532 24.2706C36.9532 24.2706 40.8552 31.4645 34.7107 37.452C34.7107 37.4967 32.0646 39.9989 28.7906 40.3564Z" fill="#00C2CB"/>
<path d="M30.6295 39.9528C30.6295 39.9528 35.5183 33.9653 31.7957 25.7436C31.7957 25.7436 29.643 20.9625 24.7095 18.9071C24.7095 18.9071 31.9751 16.4048 36.9983 24.3137C36.9534 24.2691 42.2008 35.1716 30.6295 39.9528Z" fill="#5CE1E6"/>
<path d="M19.0584 26.6825C21.139 26.6825 22.8257 25.002 22.8257 22.9291C22.8257 20.8561 21.139 19.1758 19.0584 19.1758C16.9777 19.1758 15.291 20.8561 15.291 22.9291C15.291 25.002 16.9777 26.6825 19.0584 26.6825Z" fill="#F4F4F4"/>
<path d="M19.0599 25.4342C20.447 25.4342 21.5715 24.3139 21.5715 22.9319C21.5715 21.55 20.447 20.4297 19.0599 20.4297C17.6728 20.4297 16.5483 21.55 16.5483 22.9319C16.5483 24.3139 17.6728 25.4342 19.0599 25.4342Z" fill="#00C2CB"/>
<path d="M34.1306 2.19731C34.1306 2.19731 34.1754 2.15262 34.0857 2.10795C34.0857 2.10795 31.3948 0.722774 26.7304 0.544042C26.7304 0.544042 24.5776 0.409993 22.1109 0.901506C22.1109 0.901506 21.6624 0.946188 21.7521 1.25897C21.7521 1.25897 21.7969 1.48238 22.1109 1.39302C22.1109 1.39302 23.86 0.901506 26.2819 0.856822C26.2819 0.856822 29.242 0.722774 32.4263 1.61643C32.4263 1.61643 33.3681 1.88453 33.996 2.15262C33.996 2.19731 34.0857 2.28668 34.1306 2.19731Z" fill="#00C2CB"/>
<path d="M31.7508 2.37525C31.7508 2.37525 31.7957 2.33056 31.706 2.28589C31.706 2.28589 28.8804 1.25817 24.2161 1.57096C24.2161 1.57096 22.0633 1.70501 19.6864 2.50929C19.6864 2.50929 19.2827 2.59866 19.3724 2.91144C19.3724 2.91144 19.462 3.13486 19.776 3.00081C19.776 3.00081 21.4803 2.33056 23.8573 1.9731C23.8573 1.9731 26.8173 1.48159 30.0466 2.01778C30.0466 2.01778 30.9885 2.15183 31.706 2.37525C31.6162 2.37525 31.7061 2.41993 31.7508 2.37525Z" fill="#00C2CB"/>
</svg>
