<svg width="20" height="21" viewBox="0 0 20 21" fill="none" xmlns="http://www.w3.org/2000/svg">
<path d="M10 0.457031C4.47715 0.457031 0 4.93418 0 10.457C0 15.9799 4.47715 20.457 10 20.457C15.5229 20.457 20 15.9799 20 10.457C20 4.93418 15.5229 0.457031 10 0.457031ZM15.0633 9.53445C14.0014 9.53445 12.9682 9.18984 12.1727 8.60672L12.1663 12.5716C12.1657 13.3062 11.941 14.0232 11.5222 14.6269C11.1035 15.2305 10.5106 15.6921 9.82269 15.95C9.13479 16.208 8.38459 16.25 7.67219 16.0704C6.9598 15.8909 6.31909 15.4984 5.83558 14.9453C5.35206 14.3921 5.04873 13.7047 4.96606 12.9747C4.8834 12.2447 5.02532 11.5069 5.37291 10.8596C5.72049 10.2124 6.2572 9.68653 6.91141 9.35224C7.56562 9.01796 8.30622 8.89114 9.03438 8.98871V10.9358C8.69089 10.8343 8.32417 10.8436 7.98624 10.9622C7.6483 11.0809 7.3563 11.3029 7.15165 11.5969C6.94701 11.8908 6.8401 12.2417 6.8461 12.5998C6.8521 12.9579 6.97069 13.3051 7.18507 13.592C7.39944 13.8789 7.69871 14.091 8.04043 14.1983C8.38215 14.3056 8.74898 14.3026 9.08887 14.1896C9.42877 14.0767 9.72448 13.8596 9.93408 13.5692C10.1437 13.2788 10.2565 12.9297 10.2566 12.5716V4.72785H12.2595C12.2595 5.09603 12.332 5.46061 12.4729 5.80076C12.6138 6.14092 12.8203 6.44999 13.0807 6.71033C13.341 6.97068 13.6501 7.17719 13.9902 7.31808C14.3304 7.45898 14.695 7.53149 15.0632 7.53148L15.0633 9.53445Z" fill="white" fill-opacity="0.3"/>
</svg>
