<svg width="53" height="53" viewBox="0 0 53 53" fill="none" xmlns="http://www.w3.org/2000/svg">
<rect x="0.5" y="0.630859" width="52" height="52" rx="26" fill="#EEEEEE"/>
<path d="M28.5 16.6309L34.5 22.6309V34.6309C34.5 35.1613 34.2893 35.67 33.9142 36.0451C33.5391 36.4201 33.0304 36.6309 32.5 36.6309H20.5C19.9696 36.6309 19.4609 36.4201 19.0858 36.0451C18.7107 35.67 18.5 35.1613 18.5 34.6309V18.6309C18.5 18.1004 18.7107 17.5917 19.0858 17.2166C19.4609 16.8416 19.9696 16.6309 20.5 16.6309H28.5ZM32.5 34.6309V23.6309H27.5V18.6309H20.5V34.6309H32.5ZM26.5 26.6309L30.5 30.6309H28V33.6309H25V30.6309H22.5L26.5 26.6309Z" fill="#616161"/>
</svg>
