<svg width="20" height="21" viewBox="0 0 20 21" fill="none" xmlns="http://www.w3.org/2000/svg">
<path d="M10.0809 9.6904L7.62117 6.22266H6.29053L9.35504 10.4968L9.75827 11.0614L12.3792 14.7307H13.7099L10.4841 10.2146L10.0809 9.6904Z" fill="white" fill-opacity="0.3"/>
<path d="M10 0.457031C4.47581 0.457031 0 4.93284 0 10.457C0 15.9812 4.47581 20.457 10 20.457C15.5242 20.457 20 15.9812 20 10.457C20 4.93284 15.5242 0.457031 10 0.457031ZM11.9758 15.3361L9.31452 11.5457L6.00806 15.3361H5.16129L8.95161 11.0215L5.16129 5.61832H8.06452L10.5645 9.20703L13.7097 5.61832H14.5565L10.9274 9.73123L14.879 15.3361H11.9758Z" fill="white" fill-opacity="0.3"/>
</svg>
